<?xml version="1.0" encoding="UTF-8" standalone="no"?>
<!-- Created with Inkscape (http://www.inkscape.org/) -->

<svg
   xmlns:dc="http://purl.org/dc/elements/1.1/"
   xmlns:cc="http://creativecommons.org/ns#"
   xmlns:rdf="http://www.w3.org/1999/02/22-rdf-syntax-ns#"
   xmlns:svg="http://www.w3.org/2000/svg"
   xmlns="http://www.w3.org/2000/svg"
   xmlns:sodipodi="http://sodipodi.sourceforge.net/DTD/sodipodi-0.dtd"
   xmlns:inkscape="http://www.inkscape.org/namespaces/inkscape"
   width="744.09448"
   height="750"
   viewBox="0 0 744.09449 750.00001"
   id="svg2"
   version="1.1"
   inkscape:version="0.91 r13725"
   sodipodi:docname="logo.svg">
  <defs
     id="defs4" />
  <sodipodi:namedview
     id="base"
     pagecolor="#ffffff"
     bordercolor="#666666"
     borderopacity="1.0"
     inkscape:pageopacity="0.0"
     inkscape:pageshadow="2"
     inkscape:zoom="0.98994949"
     inkscape:cx="319.83135"
     inkscape:cy="418.89872"
     inkscape:document-units="px"
     inkscape:current-layer="layer1"
     showgrid="false"
     inkscape:window-width="1920"
     inkscape:window-height="1035"
     inkscape:window-x="0"
     inkscape:window-y="1"
     inkscape:window-maximized="1"
     units="px" />
  <metadata
     id="metadata7">
    <rdf:RDF>
      <cc:Work
         rdf:about="">
        <dc:format>image/svg+xml</dc:format>
        <dc:type
           rdf:resource="http://purl.org/dc/dcmitype/StillImage" />
        <dc:title></dc:title>
      </cc:Work>
    </rdf:RDF>
  </metadata>
  <g
     inkscape:label="Layer 1"
     inkscape:groupmode="layer"
     id="layer1"
     transform="translate(0,-302.36218)">
    <path
       d="M 396.96672,708.5285 A 178.57925,178.57925 0 0 1 177.25002,824.70391 178.57925,178.57925 0 0 1 54.21172,608.75546 178.57925,178.57925 0 0 1 266.17761,478.97637 178.57925,178.57925 0 0 1 402.56872,686.74936"
       sodipodi:open="true"
       sodipodi:end="0.18875561"
       sodipodi:start="0.31476664"
       sodipodi:ry="178.57925"
       sodipodi:rx="178.57925"
       sodipodi:cy="653.24133"
       sodipodi:cx="227.1613"
       sodipodi:type="arc"
       id="path4138"
       style="opacity:1;fill:#dd056c;fill-opacity:1;stroke:#131381;stroke-width:26.78688812;stroke-linecap:butt;stroke-linejoin:miter;stroke-miterlimit:4;stroke-dasharray:80.3606646, 26.78688821;stroke-dashoffset:0;stroke-opacity:1" />
    <path
       style="opacity:1;fill:#0599d7;fill-opacity:1;stroke:#131381;stroke-width:26.78688812;stroke-linecap:butt;stroke-linejoin:miter;stroke-miterlimit:4;stroke-dasharray:80.3606646, 26.78688821;stroke-dashoffset:0;stroke-opacity:1"
       id="path4136"
       sodipodi:type="arc"
       sodipodi:cx="-618.15277"
       sodipodi:cy="722.39124"
       sodipodi:rx="178.57925"
       sodipodi:ry="178.57925"
       sodipodi:start="0.31476664"
       sodipodi:end="0.18875561"
       sodipodi:open="true"
       d="m -448.34736,777.67841 a 178.57925,178.57925 0 0 1 -219.7167,116.1754 178.57925,178.57925 0 0 1 -123.03829,-215.94844 178.57925,178.57925 0 0 1 211.96589,-129.7791 178.57925,178.57925 0 0 1 136.39111,207.773"
       transform="matrix(0.3400399,-0.94041101,0.94041101,0.3400399,0,0)" />
    <path
       style="opacity:1;fill:#fce406;fill-opacity:1;stroke:#131381;stroke-width:26.78688812;stroke-linecap:butt;stroke-linejoin:miter;stroke-miterlimit:4;stroke-dasharray:53.5737764, 26.78688821;stroke-dashoffset:0;stroke-opacity:1"
       id="path4140"
       sodipodi:type="arc"
       sodipodi:cx="523.68951"
       sodipodi:cy="518.91583"
       sodipodi:rx="178.57925"
       sodipodi:ry="178.57925"
       sodipodi:start="0.31476664"
       sodipodi:end="0.18875561"
       sodipodi:open="true"
       d="M 693.49493,574.203 A 178.57925,178.57925 0 0 1 473.77823,690.3784 178.57925,178.57925 0 0 1 350.73993,474.42996 178.57925,178.57925 0 0 1 562.70582,344.65087 178.57925,178.57925 0 0 1 699.09693,552.42386" />
  </g>
</svg>
